<svg xmlns="http://www.w3.org/2000/svg" width="24" height="24" viewBox="0 0 24 24" fill="none" stroke="currentColor" stroke-width="1.8" stroke-linecap="round" stroke-linejoin="round">
<circle cx="12" cy="12" r="6"/>
<circle cx="12" cy="12" r="2.5"/>
<rect x="10.5" y="2" width="3" height="4" rx="1"/>
<rect x="10.5" y="18" width="3" height="4" rx="1"/>
<rect x="2" y="10.5" width="4" height="3" rx="1"/>
<rect x="18" y="10.5" width="4" height="3" rx="1"/>
<rect x="4.2" y="4.2" width="3" height="3" rx="1" transform="rotate(45 5.7 5.7)"/>
<rect x="16.8" y="4.2" width="3" height="3" rx="1" transform="rotate(45 18.3 5.7)"/>
<rect x="4.2" y="16.8" width="3" height="3" rx="1" transform="rotate(45 5.7 18.3)"/>
<rect x="16.8" y="16.8" width="3" height="3" rx="1" transform="rotate(45 18.3 18.3)"/>
</svg>
